<svg width="200" height="200" viewBox="0 0 200 200" xmlns="http://www.w3.org/2000/svg">
  <!-- Head -->
  <circle cx="100" cy="40" r="20" fill="#F9C9B6" />
  <!-- Body -->
  <rect x="80" y="60" width="40" height="60" fill="#4A90E2" />
  <!-- Laptop -->
  <rect x="60" y="100" width="80" height="50" fill="#BBBBBB" />
  <line x1="60" y1="125" x2="140" y2="125" stroke="#555" stroke-width="2" />
  <line x1="60" y1="100" x2="140" y2="100" stroke="#333" stroke-width="3" />
  <!-- Blockchain Icon on Laptop -->
  <circle cx="100" cy="115" r="10" fill="#4A90E2" />
  <rect x="93" y="108" width="14" height="14" fill="#FFFFFF" />
  <circle cx="90" cy="115" r="2" fill="#4A90E2" />
  <circle cx="110" cy="115" r="2" fill="#4A90E2" />
  <circle cx="100" cy="125" r="2" fill="#4A90E2" />
  <circle cx="100" cy="105" r="2" fill="#4A90E2" />
  <line x1="90" y1="115" x2="100" y2="105" stroke="#4A90E2" stroke-width="1.5" />
  <line x1="100" y1="105" x2="110" y2="115" stroke="#4A90E2" stroke-width="1.5" />
  <line x1="110" y1="115" x2="100" y2="125" stroke="#4A90E2" stroke-width="1.5" />
  <line x1="100" y1="125" x2="90" y2="115" stroke="#4A90E2" stroke-width="1.5" />
  <!-- Arms -->
  <line x1="80" y1="70" x2="60" y2="100" stroke="#F9C9B6" stroke-width="6" />
  <line x1="120" y1="70" x2="140" y2="100" stroke="#F9C9B6" stroke-width="6" />
</svg>
